<?xml version="1.0" encoding="iso-8859-1"?>
<!-- Generator: Adobe Illustrator 16.0.0, SVG Export Plug-In . SVG Version: 6.00 Build 0)  -->
<!DOCTYPE svg PUBLIC "-//W3C//DTD SVG 1.1//EN" "http://www.w3.org/Graphics/SVG/1.1/DTD/svg11.dtd">
<svg version="1.1" id="Capa_1" xmlns="http://www.w3.org/2000/svg" xmlns:xlink="http://www.w3.org/1999/xlink" x="0px" y="0px"
	 width="535.5px" height="535.5px" viewBox="0 0 535.5 535.5" style="enable-background:new 0 0 535.5 535.5;" xml:space="preserve"
	>
<g>
	<g id="iconos_56_">
		<path d="M267.75,390.437c69.424,0,125.909-56.476,125.909-125.909c0-69.433-56.485-125.9-125.909-125.9
			s-125.91,56.476-125.91,125.91S198.326,390.437,267.75,390.437z M269.49,185.226c42.181,0,76.376,34.195,76.376,76.376
			c0,42.18-34.195,76.375-76.376,76.375c-42.18,0-76.375-34.195-76.375-76.375C193.115,219.421,227.31,185.226,269.49,185.226z"/>
		<path d="M113.488,347.31l-54.965,83.031l35.888,35.821l81.138-53.817c13.674,8.539,28.563,18.054,44.399,22.644L239.732,535.5
			h50.653l19.277-98.111c16.113-3.729,31.423-10.911,45.527-18.694l83.031,54.41l35.821-36.165l-53.818-81.271
			c8.54-13.675,14.114-28.631,18.705-44.466l96.571-19.843v-50.652l-94.162-19.278c-3.729-16.113-8.94-31.422-16.715-45.527
			l55.405-83.041L444.359,57.04l-81.022,53.818c-13.675-8.539-28.506-11.905-44.342-16.495L299.239,0h-50.652l-19.278,91.962
			c-16.113,3.729-31.422,7.832-45.527,15.616l-83.031-55.95L64.929,87.019l53.818,80.89c-8.539,13.684-15.854,28.438-20.435,44.274
			L0,231.843v50.652l95.902,19.278C99.632,317.896,105.713,333.205,113.488,347.31z M267.75,129.065
			c74.702,0,135.472,60.77,135.472,135.472s-60.77,135.462-135.472,135.462s-135.472-60.77-135.472-135.472
			S193.048,129.065,267.75,129.065z"/>
	</g>
</g>
<g>
</g>
<g>
</g>
<g>
</g>
<g>
</g>
<g>
</g>
<g>
</g>
<g>
</g>
<g>
</g>
<g>
</g>
<g>
</g>
<g>
</g>
<g>
</g>
<g>
</g>
<g>
</g>
<g>
</g>
</svg>
