<?xml version="1.0" encoding="utf-8"?>
<!-- Generator: Adobe Illustrator 21.0.0, SVG Export Plug-In . SVG Version: 6.00 Build 0)  -->
<svg version="1.1" id="Layer_1" xmlns="http://www.w3.org/2000/svg" xmlns:xlink="http://www.w3.org/1999/xlink" x="0px" y="0px"
	 viewBox="0 0 512 512" style="enable-background:new 0 0 512 512;" xml:space="preserve">
<style type="text/css">
	.st0{fill:#13BFA1;}
	.st1{fill:#E0F2F1;}
	.st2{fill:#1DE9B6;}
</style>
<title>Artboard 46</title>
<g>
	<g>
		<path class="st0" d="M256,508.5c-67.4,0-130.9-26.3-178.5-74c-47.7-47.7-74-111.1-74-178.5s26.3-130.9,74-178.5s111.1-74,178.5-74
			s130.9,26.3,178.5,74c47.7,47.7,74,111.1,74,178.5s-26.3,130.9-74,178.5C386.9,482.2,323.4,508.5,256,508.5z M231.1,469.5h45.5
			l15.2-77.6c9.9-2.5,20.4-6.9,32.5-13.5l65.8,43.1l32.1-32.4l-42.6-64.3c5.2-8.8,9.4-18.8,13.3-31.8l76.5-15.7v-45.4L395,216.7
			c-3-12.4-6.9-23.1-11.9-32.5l43.9-65.8l-32-32.2l-64.1,42.6c-9-5.2-18.4-7.8-28.3-10.6c-1.1-0.3-2.2-0.6-3.4-0.9l-15.6-74.7h-45.4
			L223,115.3c-10.7,2.5-21.9,5.6-32.5,11.1L124.6,82l-32.2,31.8l42.6,64c-6.6,10.9-11.4,21.3-14.6,31.6L42.5,225v45.5l75.8,15.2
			c2.8,11.1,7,22,12.6,32.5L87.4,384l32.2,32.1l64.1-42.5c9.6,6,20.4,12.6,31.7,16.3L231.1,469.5z"/>
		<path class="st1" d="M256,7c33.6,0,66.2,6.6,96.9,19.6C382.5,39.1,409.2,57.1,432,80s40.8,49.5,53.4,79.1
			c13,30.7,19.6,63.3,19.6,96.9s-6.6,66.2-19.6,96.9c-12.5,29.6-30.5,56.3-53.4,79.1s-49.5,40.8-79.1,53.4
			c-30.7,13-63.3,19.6-96.9,19.6s-66.2-6.6-96.9-19.6c-29.6-12.5-56.3-30.5-79.1-53.4s-40.8-49.5-53.4-79.1
			C13.6,322.2,7,289.6,7,256s6.6-66.2,19.6-96.9C39.1,129.5,57.1,102.8,80,80s49.5-40.8,79.1-53.4C189.8,13.6,222.4,7,256,7
			 M219.9,112.3c-9.7,2.3-19.7,5.2-29.3,9.9l-61.7-41.6l-4.8-3.2l-4.1,4l-28,27.9l-4.1,4.1l3.2,4.8l39.7,59.7
			c-5.8,9.7-10.1,19.1-13.2,28.5l-73,14.6l-5.6,1.1v5.7v39.7v5.7l5.6,1.1l70.9,14.2c2.7,10,6.5,19.8,11.4,29.3l-40.8,61.6l-3.2,4.8
			l4.1,4l28.1,28.1l4,4l4.8-3.2l59.9-39.7c8.7,5.4,18.4,11.2,28.6,14.8l14.7,74.8l1.1,5.6h5.8h39.7h5.8l1.1-5.7l14.3-72.6
			c9-2.5,18.5-6.5,29.3-12.2l61.6,40.4l4.8,3.1l4-4.1l28.1-28.4l4-4l-3.1-4.7l-39.8-60.1c4.6-8.1,8.4-17.2,11.9-28.7l71.6-14.7
			l5.6-1.1v-5.7v-39.7v-5.7l-5.6-1.1l-69.5-14.2c-2.8-11-6.3-20.6-10.7-29.3l41.1-61.7l3.2-4.8l-4-4.1l-28-28.1l-4.1-4.1l-4.8,3.2
			l-59.9,39.8c-8.8-4.7-17.8-7.2-27.2-9.9c-0.4-0.1-0.9-0.2-1.3-0.4l-14.6-69.9l-1.2-5.6h-5.7H241h-5.7l-1.2,5.6L219.9,112.3 M256,0
			C114.6,0,0,114.6,0,256s114.6,256,256,256s256-114.6,256-256S397.4,0,256,0L256,0z M190.1,130.4c11.1-6.1,23.1-9.3,35.7-12.2
			L241,46h39.7l15.5,74c12.4,3.6,24.1,6.2,34.8,12.9l63.5-42.2l28,28.1L379,184c6.1,11.1,10.2,23.1,13.1,35.7l73.9,15.1v39.7
			l-75.7,15.6c-3.6,12.4-8,24.1-14.7,34.9l42.2,63.7l-28.1,28.4l-65.1-42.7c-11.1,6.1-23.1,11.7-35.7,14.7L273.8,466H234l-15.5-78.8
			c-12.4-3.6-24.1-11.1-34.8-17.8L120,411.6l-28.1-28.1l43.1-65.1c-6.1-11.1-10.9-23.1-13.8-35.7L46,267.6v-39.7l77.1-15.4
			c3.6-12.4,9.3-24,16-34.7l-42.2-63.4L125,86.5L190.1,130.4L190.1,130.4z"/>
	</g>
	<g>
		<path class="st2" d="M256,356.2c-56.7,0-102.8-46.1-102.8-102.8S199.3,150.7,256,150.7s102.8,46.1,102.8,102.8
			C358.8,310.1,312.7,356.2,256,356.2z M256,151.2c-56.4,0-102.3,45.9-102.3,102.3S199.6,355.7,256,355.7s102.3-45.9,102.3-102.3
			C358.3,197.1,312.4,151.2,256,151.2z"/>
		<path class="st1" d="M256,147.2c-58.6,0-106.3,47.7-106.3,106.2c0,58.6,47.7,106.3,106.3,106.3S362.3,312,362.3,253.5
			C362.3,194.9,314.6,147.2,256,147.2L256,147.2z M256,352.2c-54.5,0-98.8-44.3-98.8-98.7c0-54.5,44.3-98.8,98.8-98.8
			s98.8,44.3,98.8,98.7S310.5,352.2,256,352.2L256,352.2z"/>
	</g>
	<g>
		<path class="st0" d="M257.4,307.6c-31.1,0-56.4-25.3-56.4-56.4s25.3-56.4,56.4-56.4s56.4,25.3,56.4,56.4S288.5,307.6,257.4,307.6z
			"/>
		<path class="st1" d="M257.4,198.3c29.2,0,52.9,23.7,52.9,52.9s-23.7,52.9-52.9,52.9s-52.9-23.7-52.9-52.9
			C204.5,222,228.2,198.3,257.4,198.3 M257.4,191.3c-33.1,0-59.9,26.8-59.9,59.9s26.8,59.9,59.9,59.9s59.9-26.8,59.9-59.9
			S290.4,191.3,257.4,191.3L257.4,191.3z"/>
	</g>
</g>
</svg>
