<svg width="96" height="96" viewBox="0 0 96 96" fill="none" xmlns="http://www.w3.org/2000/svg">
<path d="M91.4286 46.0274H86.8571V57.863H9.14286V10.5205H42.2857V5.26027C42.2857 3.41918 42.7429 1.57808 43.4286 0H4.57143C2.05714 0 0 2.36712 0 5.26027V71.0137C0 73.9068 2.05714 76.274 4.57143 76.274H38.6286L36.8 88.1096H28.3429C26.5143 88.1096 24.9143 89.9507 24.9143 92.0548C24.9143 94.1589 26.5143 96 28.3429 96H67.2C69.0286 96 70.6286 94.1589 70.6286 92.0548C70.6286 89.9507 69.0286 88.1096 67.2 88.1096H58.7429L57.3714 76.274H91.4286C93.9429 76.274 96 73.9068 96 71.0137V44.7123C94.6286 45.5014 93.0286 46.0274 91.4286 46.0274ZM48 72.3288C46.1714 72.3288 44.5714 70.4877 44.5714 68.3836C44.5714 66.2794 46.1714 64.4384 48 64.4384C49.8286 64.4384 51.4286 66.2794 51.4286 68.3836C51.4286 70.4877 49.8286 72.3288 48 72.3288Z" fill="#244258"/>
<path d="M91.4286 0H52.5714C50.0571 0 48 2.36712 48 5.26027V42.0822C48 44.1863 50.0571 45.5014 51.6571 44.1863L56 40.5041C56.6857 39.7151 57.8286 39.4521 58.7429 39.4521H91.4286C93.9429 39.4521 96 37.0849 96 34.1918V5.26027C96 2.36712 93.9429 0 91.4286 0ZM62.4 28.6685C61.9429 29.1945 61.2571 29.4575 60.5714 29.4575C59.8857 29.4575 58.9714 29.1945 58.5143 28.4055L53.9429 22.3562C53.0286 21.3041 53.0286 19.463 53.7143 18.1479L58.2857 11.0466C59.2 9.46849 61.0286 9.20548 62.1714 10.2575C63.5429 11.3096 63.7714 13.4137 62.8571 14.7288L59.6571 19.726L62.6286 23.6712C63.7714 25.5123 63.5429 27.6164 62.4 28.6685ZM77.0286 11.3096L72.6857 29.7205C72.2286 31.2986 71.0857 32.0877 69.9429 32.0877C69.7143 32.0877 69.4857 32.0877 69.2571 32.0877C67.6571 31.5616 66.7429 29.7205 67.2 28.1425L71.5429 9.73151C72 7.89041 73.6 6.83836 74.9714 7.36438C76.5714 7.89041 77.4857 9.73151 77.0286 11.3096ZM90.2857 21.0411L85.7143 28.1425C85.2571 28.9315 84.3429 29.4575 83.4286 29.4575C82.7429 29.4575 82.2857 29.1945 81.8286 28.9315C80.4571 27.8795 80.2286 25.7753 81.1429 24.4603L84.3429 19.463L81.3714 15.5178C80.2286 14.2027 80.4571 12.0986 81.6 10.7836C82.7429 9.46849 84.5714 9.73151 85.7143 11.0466L90.2857 17.0959C90.9714 18.1479 91.2 19.989 90.2857 21.0411Z" fill="#244258"/>
</svg>
