<svg width="96" height="96" viewBox="0 0 96 96" fill="none" xmlns="http://www.w3.org/2000/svg">
<path d="M27.4975 48.7619C25.0854 46.2222 21.4673 46.4762 19.2965 49.2698C17.3668 51.5555 17.8492 55.1111 20.0201 57.3968L26.0503 63.746C27.2563 65.0158 27.2563 67.0476 26.0503 68.3174C24.8442 69.5873 22.9146 69.5873 21.7085 68.3174L15.6784 61.9682C13.5075 59.9365 12.0603 56.6349 12.0603 53.3333V38.0952C12.0603 34.2857 8.92462 31.492 5.30653 31.746C2.17085 32 0 35.0476 0 38.3492V54.0952C0 57.6508 1.20603 61.2063 3.37688 64L16.8844 80.7619C17.1256 81.0158 17.608 81.2698 17.8492 81.2698H42.6935C43.4171 81.2698 43.8995 80.7619 43.8995 80V72.3809C43.8995 68.3174 42.4523 64.5079 39.5578 61.7143L27.4975 48.7619ZM90.4523 31.746C86.8342 31.492 83.6985 34.2857 83.6985 38.0952V53.3333C83.4573 56.6349 82.2513 59.9365 80.0804 62.2222L74.2915 68.5714C73.0854 69.8412 71.1558 69.8412 69.9497 68.5714C68.7437 67.3016 68.7437 65.2698 69.9497 64L75.9799 57.6508C78.1507 55.3651 78.392 52.0635 76.7035 49.5238C74.5327 46.7301 70.6734 46.7301 68.5025 49.0158L56.4422 61.7143C53.7889 64.5079 52.1005 68.5714 52.1005 72.3809V80C52.1005 80.7619 52.5829 81.2698 53.3065 81.2698H78.1508C78.392 81.2698 78.8744 81.0158 79.1156 80.7619L92.6231 64C94.794 61.2063 96 57.6508 96 54.0952V38.3492C96 35.0476 93.5879 32 90.4523 31.746Z" fill="#244258"/>
<path d="M43.4171 88.381H18.5729C17.8492 88.381 17.3668 88.8889 17.3668 89.6508V94.7302C17.3668 95.4921 17.8492 96 18.5729 96H43.4171C44.1407 96 44.6231 95.4921 44.6231 94.7302V89.6508C44.6231 88.8889 43.8995 88.381 43.4171 88.381ZM77.4271 88.381H52.5829C51.8593 88.381 51.3769 88.8889 51.3769 89.6508V94.7302C51.3769 95.4921 51.8593 96 52.5829 96H77.4271C78.1507 96 78.6331 95.4921 78.6331 94.7302V89.6508C78.6331 88.8889 78.1507 88.381 77.4271 88.381ZM72.8442 25.3968C72.8442 11.4286 61.9899 0 48.7236 0C35.4573 0 24.603 11.4286 24.603 25.3968C24.603 39.3651 35.4573 50.7937 48.7236 50.7937C61.9899 50.7937 72.8442 39.3651 72.8442 25.3968ZM47.0352 20.8254L52.5829 23.873C55.7186 25.6508 57.407 29.2063 56.9246 32.7619C56.4422 35.8095 54.7538 38.0952 52.1005 39.1111V40.127C52.1005 41.9048 50.6533 43.1746 49.206 43.1746C47.5176 43.1746 46.3115 41.6508 46.3115 40.127V39.3651C43.6583 38.6032 41.2462 36.5714 40.2814 33.5238C39.5578 32 40.2814 29.9683 41.7286 29.4603C43.1759 28.6984 45.1055 29.4603 45.5879 30.9841C46.3115 32.5079 47.7588 33.5238 49.206 33.2698H49.4472C50.6533 33.0159 50.8945 32 50.8945 31.4921C50.8945 31.2381 51.1357 29.7143 49.9296 29.2064L44.3819 26.1587C41.2462 24.381 39.5578 20.8254 40.0402 17.0159C40.5226 13.7143 42.9347 11.1746 46.0703 10.4127V9.90476C46.0703 8.12698 47.5176 6.85714 48.9648 6.85714C50.6533 6.85714 51.8593 8.38095 51.8593 9.90476V11.4286C54.0301 12.4444 55.7186 14.2222 56.6834 16.7619C57.407 18.2857 56.6834 20.3175 55.2362 20.8254C53.7889 21.5873 51.8593 20.8254 51.3769 19.3016C50.6533 17.7778 49.206 16.7619 47.7588 17.0159C46.3115 17.2698 46.0703 18.2857 46.0703 18.7937C46.0703 19.0476 45.8291 20.3175 47.0352 20.8254Z" fill="#244258"/>
</svg>
