<svg width="96" height="96" viewBox="0 0 96 96" fill="none" xmlns="http://www.w3.org/2000/svg">
<g opacity="0.8">
<path d="M9.36585 10.5205H70.2439H79.6098V5.26027C79.6098 2.36712 77.5024 0 74.9268 0H4.68293C2.10732 0 0 2.36712 0 5.26027V65.7534C0 68.6466 2.10732 71.0137 4.68293 71.0137H32.3122L30.6732 81.5342H22.2439C20.3707 81.5342 18.7317 83.3753 18.7317 85.4795C18.7317 87.5836 20.3707 89.4247 22.2439 89.4247H45.6585V60.4931H9.36585V10.5205ZM86.6341 17.0959H60.878C55.7268 17.0959 51.5122 21.8301 51.5122 27.6164V85.4795C51.5122 91.2658 55.7268 96 60.878 96H86.6341C91.7854 96 96 91.2658 96 85.4795V27.6164C96 21.8301 91.7854 17.0959 86.6341 17.0959ZM75.3951 89.4247H71.8829C70.0098 89.4247 68.3707 87.5836 68.3707 85.4795C68.3707 83.3753 70.0098 81.5342 71.8829 81.5342H75.3951C77.2683 81.5342 78.9073 83.3753 78.9073 85.4795C78.9073 87.5836 77.5024 89.4247 75.3951 89.4247ZM88.5073 73.3808C88.5073 74.9589 87.5707 76.011 86.1658 76.011H61.3463C59.9415 76.011 59.0049 74.9589 59.0049 73.3808V30.7726C59.0049 29.1945 59.9415 28.1425 61.3463 28.1425H86.1658C87.5707 28.1425 88.5073 29.1945 88.5073 30.7726V73.3808Z" fill="#244258"/>
<path d="M42.8488 21.0411H40.2732C39.5707 21.0411 38.8683 21.8301 38.8683 22.6192V24.7233C38.8683 25.5123 38.4 26.0384 37.9317 26.0384C37.2293 26.3014 36.761 26.5644 36.0585 26.8274C35.5902 27.0904 34.8878 27.0904 34.4195 26.5644L33.0146 24.9863C32.5463 24.4603 31.6098 24.4603 31.1415 24.9863L29.2683 27.0904C28.8 27.6165 28.8 28.6685 29.2683 29.1945L30.6732 30.7726C31.1415 31.2986 31.1415 31.8247 30.9073 32.6137C30.6732 33.4028 30.439 33.9288 30.2049 34.7178C29.9707 35.2438 29.5024 35.7699 29.0342 35.7699H27.161C26.4585 35.7699 25.7561 36.5589 25.7561 37.348V40.2411C25.7561 41.0302 26.4585 41.8192 27.161 41.8192H29.0342C29.7366 41.8192 30.2049 42.3452 30.2049 42.8712C30.439 43.6603 30.6732 44.1863 30.9073 44.9754C31.1415 45.5014 31.1415 46.2904 30.6732 46.8165L29.2683 48.3945C28.8 48.9206 28.8 49.9726 29.2683 50.4986L31.1415 52.6028C31.6098 53.1288 32.5463 53.1288 33.0146 52.6028L34.4195 51.0247C34.8878 50.4986 35.3561 50.4986 36.0585 50.7617C36.761 51.0247 37.2293 51.2877 37.9317 51.5507C38.4 51.8137 38.8683 52.3397 38.8683 52.8658V55.2329C38.8683 56.0219 39.5707 56.811 40.2732 56.811H42.8488C43.5512 56.811 44.2537 56.0219 44.2537 55.2329V45.7644C43.5512 46.2904 42.6146 46.2904 41.6781 46.2904C37.9317 46.2904 35.122 42.8712 35.122 38.926C35.122 34.7178 38.1659 31.5617 41.6781 31.5617C42.6146 31.5617 43.5512 31.8247 44.2537 32.0877V22.6192C44.0195 21.8301 43.5512 21.0411 42.8488 21.0411ZM80.3122 48.9206H78.439C77.7366 48.9206 77.2683 48.3945 77.2683 47.8685C77.0341 47.0795 76.8 46.5534 76.5659 45.7644C76.3317 45.2384 76.3317 44.4493 76.8 43.9233L78.2049 42.3452C78.6732 41.8192 78.6732 40.7671 78.2049 40.2411L76.3317 38.137C75.8634 37.611 74.9268 37.611 74.4585 38.137L73.0537 39.7151C72.5854 40.2411 72.1171 40.2411 71.4146 39.9781C70.7122 39.7151 70.2439 39.4521 69.5415 39.1891C69.0732 38.926 68.6049 38.4 68.6049 37.874V35.7699C68.6049 34.9808 67.9024 34.1918 67.2 34.1918H64.6244C63.922 34.1918 63.2195 34.9808 63.2195 35.7699V45.2384C63.922 44.7123 64.8585 44.7123 65.7951 44.7123C69.5415 44.7123 72.3512 48.1315 72.3512 52.0767C72.3512 56.2849 69.3073 59.4411 65.7951 59.4411C64.8585 59.4411 63.922 59.1781 63.2195 58.9151V68.3836C63.2195 69.1726 63.922 69.9617 64.6244 69.9617H67.2C67.9024 69.9617 68.6049 69.1726 68.6049 68.3836V66.2795C68.6049 65.4904 69.0732 64.9644 69.5415 64.9644C70.2439 64.7014 70.7122 64.4384 71.4146 64.1754C71.8829 63.9123 72.5854 63.9123 73.0537 64.4384L74.4585 66.0165C74.9268 66.5425 75.8634 66.5425 76.3317 66.0165L78.2049 63.9123C78.6732 63.3863 78.6732 62.3343 78.2049 61.8082L76.8 60.2302C76.3317 59.7041 76.3317 59.1781 76.5659 58.3891C76.8 57.6 77.0341 57.074 77.2683 56.2849C77.5024 55.7589 77.9707 55.2329 78.439 55.2329H80.3122C81.0146 55.2329 81.7171 54.4438 81.7171 53.6548V50.7617C81.4829 49.7096 81.0146 48.9206 80.3122 48.9206Z" fill="#244258"/>
</g>
</svg>
