<svg width="96" height="96" viewBox="0 0 96 96" fill="none" xmlns="http://www.w3.org/2000/svg">
<g opacity="0.8">
<path d="M96 45.4737C96 32.8421 86.6341 22.7368 74.9268 22.7368C63.2195 22.7368 53.8537 32.8421 53.8537 45.4737C53.8537 56.8421 61.5805 66.1895 71.6488 67.9579V71.7474C70.2439 71.7474 69.3073 72.7579 69.3073 74.2737V93.4737C69.3073 94.9895 70.2439 96 71.6488 96H78.2049C79.6098 96 80.5463 94.9895 80.5463 93.4737V74.0211C80.5463 72.5053 79.6098 71.4947 78.2049 71.4947V67.7053C88.2732 66.1895 96 56.8421 96 45.4737ZM74.9268 59.3684C67.6683 59.3684 62.0488 53.0526 62.0488 45.4737C62.0488 37.8947 67.9024 31.579 74.9268 31.579C82.1854 31.579 87.8049 37.8947 87.8049 45.4737C87.8049 53.0526 82.1854 59.3684 74.9268 59.3684ZM28.0976 46.7368H19.9024C18.4976 46.7368 17.561 47.7474 17.561 49.2632V59.3684C17.561 60.8842 18.4976 61.8947 19.9024 61.8947H28.0976C29.5024 61.8947 30.439 60.8842 30.439 59.3684V49.2632C30.439 47.7474 29.5024 46.7368 28.0976 46.7368Z" fill="#244258"/>
<path d="M74.9268 0H9.36585C4.21463 0 0 4.54737 0 10.1053V73.2632C0 78.8211 4.21463 83.3684 9.36585 83.3684H63.4537V73.2632H11.7073C10.3024 73.2632 9.36585 72.2526 9.36585 70.7368V27.7895C9.36585 26.2737 10.3024 25.2632 11.7073 25.2632H55.7268C60.4098 19.9579 66.9659 16.6737 74.2244 16.4211C74.4585 16.4211 74.6927 16.4211 75.161 16.4211C78.439 16.4211 81.7171 17.1789 84.5268 18.1895V10.1053C84.2927 4.54737 80.078 0 74.9268 0ZM14.0488 17.6842C11.4732 17.6842 9.36585 15.4105 9.36585 12.6316C9.36585 9.85263 11.4732 7.57895 14.0488 7.57895C16.6244 7.57895 18.7317 9.85263 18.7317 12.6316C18.7317 15.4105 16.6244 17.6842 14.0488 17.6842ZM37.4634 16.4211H28.0976C26.2244 16.4211 24.5854 14.6526 24.5854 12.6316C24.5854 10.6105 26.2244 8.84211 28.0976 8.84211H37.4634C39.3366 8.84211 40.9756 10.6105 40.9756 12.6316C40.9756 14.6526 39.3366 16.4211 37.4634 16.4211ZM38.6341 63.6632H50.3415C51.9805 63.6632 53.1512 62.1474 53.1512 60.6316C53.1512 59.1158 51.7463 57.6 50.3415 57.6H38.6341C36.9951 57.6 35.8244 59.1158 35.8244 60.6316C35.8244 62.1474 36.9951 63.6632 38.6341 63.6632ZM45.6585 32.3368H19.9024C18.2634 32.3368 17.0927 33.8526 17.0927 35.3684C17.0927 36.8842 18.4976 38.4 19.9024 38.4H45.6585C47.2976 38.4 48.4683 36.8842 48.4683 35.3684C48.4683 33.8526 47.2976 32.3368 45.6585 32.3368ZM45.6585 44.9684H38.6341C36.9951 44.9684 35.8244 46.4842 35.8244 48C35.8244 49.5158 37.2293 51.0316 38.6341 51.0316H45.6585C47.2976 51.0316 48.4683 49.5158 48.4683 48C48.4683 46.4842 47.2976 44.9684 45.6585 44.9684Z" fill="#244258"/>
</g>
</svg>
