<?xml version="1.0" encoding="utf-8"?>
<!-- Generator: Adobe Illustrator 21.0.0, SVG Export Plug-In . SVG Version: 6.00 Build 0)  -->
<svg version="1.1" id="Layer_1" xmlns="http://www.w3.org/2000/svg" xmlns:xlink="http://www.w3.org/1999/xlink" x="0px" y="0px"
	 viewBox="0 0 16 16" style="enable-background:new 0 0 16 16;" xml:space="preserve">
<g>
	<g id="iconos_56_">
		<path d="M8,11.7c2.1,0,3.8-1.7,3.8-3.8S10.1,4.1,8,4.1S4.2,5.8,4.2,7.9S5.9,11.7,8,11.7z M8.1,5.5c1.3,0,2.3,1,2.3,2.3
			c0,1.3-1,2.3-2.3,2.3c-1.3,0-2.3-1-2.3-2.3C5.8,6.6,6.8,5.5,8.1,5.5z"/>
		<path d="M3.4,10.4l-1.6,2.5l1.1,1.1l2.4-1.6c0.4,0.3,0.9,0.5,1.3,0.7l0.6,3h1.5l0.6-2.9c0.5-0.1,0.9-0.3,1.4-0.6l2.5,1.6l1.1-1.1
			l-1.6-2.4c0.3-0.4,0.4-0.9,0.6-1.3L16,8.7V7.2l-2.8-0.6c-0.1-0.5-0.3-0.9-0.5-1.4l1.7-2.5l-1.1-1.1l-2.4,1.6
			C10.4,3.1,10,3,9.5,2.8L8.9,0H7.4L6.9,2.7C6.4,2.9,5.9,3,5.5,3.2L3,1.5L1.9,2.6L3.5,5C3.3,5.4,3.1,5.9,2.9,6.3L0,6.9v1.5L2.9,9
			C3,9.5,3.2,10,3.4,10.4z M8,3.9c2.2,0,4,1.8,4,4s-1.8,4-4,4s-4-1.8-4-4S5.8,3.9,8,3.9z"/>
	</g>
</g>
</svg>
